<svg version="1.1" id="Layer_1" xmlns="http://www.w3.org/2000/svg" xmlns:xlink="http://www.w3.org/1999/xlink" x="0px" y="0px"
	 width="100%" viewBox="0 0 2562 895" enable-background="new 0 0 2562 895" xml:space="preserve">
<path fill="#FFFFFF" opacity="1.000000" stroke="none" 
	d="
M2014.000000,896.000000 
	C1342.666748,896.000000 671.833496,896.000000 1.000180,896.000000 
	C1.000120,597.666809 1.000120,299.333557 1.000060,1.000260 
	C854.999756,1.000173 1708.999512,1.000173 2562.999512,1.000087 
	C2562.999512,299.333099 2562.999512,597.666199 2562.999756,895.999634 
	C2380.166748,896.000000 2197.333252,896.000000 2014.000000,896.000000 
M390.757935,845.385376 
	C399.202515,859.881958 409.659485,872.810852 422.039734,884.063660 
	C425.224548,886.958557 429.627655,888.839233 433.789917,890.235229 
	C437.482452,891.473633 442.137604,892.935242 443.767365,886.795044 
	C443.937622,886.153625 444.955475,885.674622 445.656860,885.245972 
	C457.531891,877.989197 466.721680,867.895081 474.578125,856.689026 
	C489.009399,836.104980 493.464050,812.176575 493.574066,787.929504 
	C493.951172,704.779846 493.295166,621.625488 493.021088,538.472961 
	C492.991974,529.640320 493.205170,520.789856 492.710327,511.981110 
	C492.324219,505.107788 490.878967,498.299347 490.216095,491.431976 
	C490.068024,489.898132 490.779602,487.343628 491.862854,486.806335 
	C494.984863,485.257812 494.850647,482.840820 494.852448,480.131378 
	C494.880798,437.467194 494.928467,394.803009 495.026550,352.138916 
	C495.032623,349.494873 495.111450,346.746307 495.807312,344.226074 
	C499.477051,330.934845 502.933441,317.561157 507.272675,304.484497 
	C512.296143,289.345856 518.565247,274.618927 523.533997,259.464233 
	C527.725403,246.680634 524.668457,234.787918 514.979370,225.534271 
	C507.809448,218.686569 499.495239,213.038025 491.702057,206.841125 
	C489.925262,205.428299 488.194885,203.957123 485.915100,202.077423 
	C499.481659,197.680588 642.802612,182.883209 651.575500,184.837799 
	C650.332275,185.782867 649.394348,186.675598 648.301819,187.296341 
	C642.367676,190.668060 636.292786,193.805038 630.474365,197.362976 
	C626.954346,199.515472 623.648865,202.104813 620.585571,204.872589 
	C619.487000,205.865173 618.466553,208.736191 619.016418,209.381424 
	C620.100647,210.653793 622.306885,211.541138 624.048340,211.539902 
	C626.301025,211.538300 628.683105,210.806366 630.783508,209.877655 
	C642.185364,204.836166 653.401611,199.355881 664.921143,194.607330 
	C670.966187,192.115463 677.452271,190.601822 683.849304,189.122787 
	C685.365906,188.772156 687.324951,190.335403 689.080444,191.018234 
	C687.986084,192.523209 687.197876,194.487122 685.745789,195.455872 
	C678.410645,200.349197 670.843018,204.892685 663.475342,209.738937 
	C658.146423,213.244186 653.002441,217.030762 647.066772,221.188629 
	C654.633240,225.404633 661.489990,225.087936 667.753479,222.278458 
	C687.327087,213.498779 706.662354,204.187210 726.064453,195.027771 
	C727.071350,194.552444 728.074646,193.730286 728.684692,192.808289 
	C732.907410,186.425476 737.741821,180.304779 740.924011,173.426437 
	C743.032593,168.868912 744.206665,162.878174 743.184998,158.086365 
	C741.195190,148.753311 738.137878,139.449371 734.068604,130.819000 
	C730.626465,123.518745 728.820129,116.479408 728.889038,108.415382 
	C729.076355,86.474678 713.670227,71.559921 691.729004,71.776833 
	C688.733276,71.806450 685.739990,72.073235 682.460083,71.371826 
	C682.318176,66.211128 682.639587,60.981941 681.890015,55.911079 
	C681.274536,51.747650 680.020508,47.411381 677.952026,43.776203 
	C668.916626,27.897188 654.938965,22.663664 637.289246,25.657633 
	C635.494812,25.962027 633.212097,25.086069 631.539429,24.104435 
	C625.548096,20.588118 619.933289,16.386244 613.794250,13.173240 
	C593.063843,2.323443 571.910950,4.133945 551.888245,14.154175 
	C531.544556,24.335066 510.311523,28.166172 487.952789,29.195566 
	C469.862030,30.028465 451.793549,31.972784 433.798767,34.123665 
	C402.421967,37.874069 371.106628,42.140980 339.771057,46.233540 
	C317.540710,49.136921 295.309326,52.036423 273.097839,55.079166 
	C260.049774,56.866611 247.067078,59.147392 234.004166,60.805954 
	C222.479156,62.269249 210.847198,62.896847 199.327438,64.393463 
	C180.206894,66.877541 161.181870,70.137062 142.034058,72.358162 
	C127.175285,74.081741 112.136971,76.083023 97.275246,75.498840 
	C78.206444,74.749268 59.226768,71.599274 40.224812,69.347458 
	C32.600994,68.444000 25.020016,67.179001 17.419538,66.078568 
	C17.197811,66.612381 16.976082,67.146187 16.754353,67.679993 
	C18.013474,69.549416 19.400351,71.346596 20.506298,73.302620 
	C23.173803,78.020493 26.189245,82.629990 28.102192,87.649857 
	C29.097832,90.262566 28.054857,93.652138 27.932741,96.690796 
	C25.396038,96.288460 22.810366,96.077446 20.332962,95.443413 
	C15.382953,94.176552 10.492291,92.677818 5.577122,91.274834 
	C5.021944,92.142838 4.466765,93.010834 3.911587,93.878838 
	C5.577812,94.912895 7.326959,95.835320 8.895747,97.000557 
	C15.306931,101.762550 21.933720,106.288506 27.935843,111.526237 
	C31.424208,114.570343 34.140472,118.627510 36.720379,122.547241 
	C39.155350,126.246765 40.182751,131.118393 43.162987,134.173386 
	C62.205055,153.693176 81.615349,172.853745 100.757561,192.826584 
	C113.694496,205.766312 126.130394,219.269226 139.777817,231.410294 
	C146.695755,237.564667 155.400421,242.191528 163.995438,245.883881 
	C184.545135,254.711914 205.881958,253.414261 227.141556,248.423965 
	C258.841309,240.983032 290.502350,233.377090 322.631134,226.553162 
	C323.318024,240.693726 324.555542,254.832321 324.606262,268.975159 
	C325.084900,402.421600 325.414795,535.868713 325.634277,669.315857 
	C325.664948,687.966003 324.688446,706.615967 324.530579,725.269043 
	C324.456268,734.048889 324.314545,742.988525 325.768066,751.591370 
	C330.380859,778.892700 343.623962,802.116516 361.422363,822.933960 
	C369.518799,832.403625 377.214050,842.480957 390.757935,845.385376 
M2460.384521,351.662781 
	C2456.282227,342.989990 2446.217529,338.854980 2443.311279,329.259033 
	C2443.234619,329.005280 2442.783936,328.876404 2442.529785,328.663086 
	C2432.778076,320.481476 2423.278076,311.972351 2413.194092,304.223358 
	C2406.142334,298.804474 2398.479736,294.099640 2390.760010,289.647705 
	C2374.622803,280.341217 2357.378418,273.249176 2339.383057,268.838898 
	C2328.032715,266.057159 2315.955078,266.291321 2304.226318,264.970917 
	C2300.978027,264.605194 2299.074463,265.628448 2297.237061,268.299133 
	C2296.267578,269.708313 2293.904053,270.761963 2292.100830,270.874725 
	C2287.656738,271.152679 2283.087646,270.186432 2278.719482,270.797241 
	C2260.273682,273.376434 2241.881348,276.337585 2223.473145,279.184723 
	C2217.556641,280.099823 2216.771973,279.360413 2217.177979,272.053345 
	C2234.351318,268.106567 2251.772705,264.102844 2268.936279,260.158325 
	C2267.293945,259.890137 2265.332275,259.537628 2263.359375,259.265930 
	C2262.710693,259.176636 2262.033203,259.292664 2261.369141,259.321442 
	C2237.164795,260.371490 2214.115723,266.671082 2191.786865,275.512085 
	C2161.406494,287.540955 2134.245605,305.132751 2108.933594,325.611267 
	C2088.764404,341.929047 2071.816895,361.162476 2060.749756,384.732208 
	C2052.938721,401.367889 2045.991333,418.518311 2040.110474,435.929413 
	C2026.399658,476.521118 2020.284180,518.616272 2017.079102,561.222168 
	C2014.687622,593.014160 2016.107056,624.385071 2025.049805,655.213928 
	C2039.077637,703.573242 2062.640625,746.342346 2098.938232,781.609375 
	C2107.163330,789.600891 2116.143311,796.815735 2124.682373,805.078125 
	C2127.612549,808.680969 2130.433594,812.379272 2133.490723,815.870728 
	C2150.542725,835.345764 2170.534180,851.457581 2192.696533,864.529114 
	C2213.763428,876.954773 2236.203613,885.793213 2261.599365,884.090637 
	C2278.194824,882.978027 2294.870850,883.091003 2311.472168,882.043274 
	C2338.756836,880.321289 2365.650879,876.319397 2391.264893,866.083740 
	C2415.016113,856.592407 2436.571045,843.396729 2455.069824,825.816345 
	C2475.442627,806.455078 2491.899658,783.896362 2506.693359,759.971863 
	C2520.352539,737.882019 2530.575928,714.398621 2538.165771,689.714966 
	C2542.344238,676.125793 2545.257812,662.146362 2549.476074,648.571045 
	C2557.159180,623.845337 2557.390137,598.328552 2557.358887,572.942871 
	C2557.338867,556.722412 2554.706299,540.490295 2552.956543,524.294556 
	C2552.316162,518.366272 2551.084229,512.468872 2549.663086,506.669922 
	C2548.792969,503.118927 2545.885742,501.712830 2542.269287,502.421600 
	C2539.550293,502.954437 2538.510010,504.488586 2539.075195,507.482330 
	C2544.431885,535.856567 2543.325684,564.470276 2541.997559,593.080078 
	C2541.816406,596.979065 2539.812744,598.844727 2535.206787,597.557983 
	C2535.206787,595.456299 2535.198486,593.324890 2535.208252,591.193604 
	C2535.301025,570.893860 2535.350342,550.630676 2531.995117,530.474915 
	C2528.274902,508.124939 2524.060791,485.996429 2514.374023,465.258820 
	C2510.789307,457.584320 2507.794189,449.625366 2504.784912,441.699493 
	C2504.276123,440.360138 2505.064453,438.528320 2505.253662,436.924011 
	C2506.930908,437.511261 2509.277100,437.597137 2510.162598,438.778137 
	C2513.031738,442.604095 2515.905518,446.597229 2517.797607,450.951752 
	C2522.295166,461.304260 2526.188965,471.917877 2530.416016,482.389984 
	C2531.905273,486.079803 2533.278320,489.921783 2535.490234,493.157013 
	C2536.259277,494.282104 2539.511963,494.274658 2541.404541,493.827454 
	C2542.350586,493.604004 2543.610107,491.017456 2543.315430,489.858978 
	C2541.866211,484.161560 2539.977539,478.573822 2538.181885,472.967285 
	C2534.440918,461.286194 2531.316406,449.351349 2526.711914,438.019318 
	C2522.157471,426.810394 2516.701904,415.852905 2510.517822,405.453339 
	C2504.351807,395.083588 2496.791748,385.542786 2489.837891,375.642029 
	C2489.745361,375.510345 2489.583008,375.429260 2489.460205,375.316864 
	C2482.088867,368.584106 2474.800537,361.756256 2467.285645,355.188019 
	C2465.567627,353.686554 2463.067871,353.079681 2460.384521,351.662781 
M853.791565,805.672791 
	C854.006653,806.119995 854.143250,806.631104 854.447998,807.005310 
	C876.739014,834.383850 903.565063,856.277405 935.217163,871.828735 
	C945.385986,876.824829 956.514465,881.535339 967.580505,882.655151 
	C985.163086,884.434509 1003.072571,883.457458 1020.823608,882.945801 
	C1034.543945,882.550354 1048.309570,881.684692 1061.920776,879.965637 
	C1091.241089,876.262756 1119.455200,869.080383 1145.376465,853.847900 
	C1169.982788,839.388062 1190.632812,820.899292 1208.243896,798.578613 
	C1220.353516,783.230713 1230.527466,766.708923 1240.747559,750.113159 
	C1251.859131,732.069641 1258.770630,712.318970 1265.782227,692.625732 
	C1270.064331,680.598572 1272.385376,667.887939 1276.015747,655.610962 
	C1284.801758,625.898743 1287.298706,595.592773 1284.975342,564.825562 
	C1283.881836,550.343506 1282.492798,535.879700 1280.956543,521.437439 
	C1280.417969,516.374512 1279.223022,511.355194 1277.988525,506.400482 
	C1276.917114,502.100769 1272.952271,502.361572 1269.897339,502.727417 
	C1266.342773,503.153198 1267.518311,505.972046 1267.880859,508.549347 
	C1269.122192,517.369812 1270.622070,526.227356 1270.852905,535.101135 
	C1271.311768,552.752808 1271.024658,570.424805 1270.952515,588.088074 
	C1270.943848,590.208435 1270.835815,592.574402 1269.902588,594.374939 
	C1268.991455,596.132751 1266.964233,597.312073 1265.427002,598.745361 
	C1264.907471,598.406677 1264.387939,598.067993 1263.868530,597.729370 
	C1264.801147,570.139465 1262.749268,542.815125 1258.085205,515.627808 
	C1253.406250,488.354401 1241.976562,463.433899 1231.480469,438.327637 
	C1235.298218,436.202606 1237.127808,436.173920 1238.538208,438.335602 
	C1241.509033,442.889069 1244.810425,447.351532 1246.953003,452.294769 
	C1251.354004,462.448792 1255.025635,472.916870 1259.119263,483.207245 
	C1260.462769,486.584290 1262.088745,489.860138 1263.756714,493.093842 
	C1265.475586,496.426086 1268.242554,494.676086 1270.186768,493.678192 
	C1271.160522,493.178406 1271.818726,490.630798 1271.491699,489.283173 
	C1270.238037,484.118896 1268.519531,479.067871 1266.988281,473.970459 
	C1264.280396,464.954712 1262.479126,455.537964 1258.690796,447.002625 
	C1251.190430,430.104370 1242.691406,413.643524 1234.367065,397.121887 
	C1232.765259,393.942780 1230.153931,391.246002 1227.857544,388.450623 
	C1225.645386,385.757721 1223.136230,383.307129 1220.952759,380.593140 
	C1219.522827,378.815765 1218.760254,376.423401 1217.146973,374.885071 
	C1209.826416,367.904694 1202.379150,361.051453 1194.796509,354.357361 
	C1193.514404,353.225464 1191.345703,353.097626 1189.106323,352.019348 
	C1186.569092,348.523102 1184.732422,343.818451 1181.316284,341.838226 
	C1177.098755,339.393372 1175.616577,335.746368 1173.438599,332.182281 
	C1172.596924,330.805176 1171.753784,329.310974 1170.554321,328.289246 
	C1160.993164,320.144409 1151.604004,311.763306 1141.639160,304.138184 
	C1134.437622,298.627563 1126.796875,293.441528 1118.709473,289.394623 
	C1105.561401,282.815338 1092.081421,276.789368 1078.384033,271.446442 
	C1062.932861,265.419281 1046.337036,266.040771 1030.085449,265.055664 
	C1028.914795,264.984711 1027.203491,266.518250 1026.488892,267.741272 
	C1024.937988,270.395569 1022.949341,271.290619 1019.952881,271.051758 
	C1015.832642,270.723297 1011.600403,270.173828 1007.560486,270.743347 
	C989.112854,273.343994 970.714233,276.293701 952.301147,279.138000 
	C946.254944,280.071960 945.735229,279.653503 945.294800,272.182556 
	C962.716309,268.168335 980.313660,264.113586 997.448120,260.165527 
	C996.202332,259.951080 994.406128,259.619659 992.601501,259.343079 
	C991.948608,259.242981 991.273560,259.223907 990.612183,259.252441 
	C964.352905,260.386444 939.483826,267.511047 915.446777,277.533325 
	C892.657166,287.035522 871.749329,299.955139 851.789978,314.478882 
	C830.045776,330.301453 810.722534,348.414368 796.578491,371.524689 
	C782.153015,395.094757 772.900146,420.865173 765.036194,447.175110 
	C755.519592,479.014130 750.025879,511.638763 747.057129,544.672302 
	C744.685730,571.059082 742.653137,597.530701 746.992798,623.916626 
	C756.681763,682.826965 781.497192,734.359131 823.225098,777.292175 
	C832.823486,787.167786 843.720764,795.780884 853.791565,805.672791 
M1882.542358,133.562195 
	C1880.373657,131.037888 1878.124023,128.578293 1876.048828,125.979286 
	C1854.610352,99.127014 1828.671997,77.454048 1799.447510,59.614044 
	C1796.130859,57.589413 1792.069580,56.816383 1788.638672,54.941196 
	C1777.339844,48.765629 1766.605713,41.342220 1754.844238,36.281693 
	C1740.092285,29.934525 1724.611816,25.227436 1709.315796,20.208719 
	C1681.092529,10.948453 1652.357300,5.546586 1622.413086,8.827532 
	C1606.362305,10.586200 1590.245239,11.891459 1574.124756,12.831490 
	C1534.597046,15.136494 1496.645996,24.221066 1459.813599,38.460052 
	C1423.798462,52.383133 1389.384033,69.673027 1355.801392,88.583588 
	C1346.023560,94.089592 1336.886719,96.464874 1326.068726,92.385986 
	C1322.064453,90.876190 1317.191284,90.991402 1312.820923,91.429237 
	C1310.757935,91.635925 1307.960205,94.056000 1307.367798,96.033897 
	C1306.973999,97.349251 1309.520386,100.367989 1311.412964,101.356873 
	C1314.420288,102.928200 1317.991577,103.405014 1321.303345,104.413811 
	C1323.648926,105.128334 1325.959717,105.956779 1328.286133,106.734367 
	C1328.301270,107.392624 1328.316528,108.050873 1328.331665,108.709129 
	C1325.353149,109.817284 1322.421631,111.081657 1319.385376,111.998421 
	C1314.322632,113.527039 1308.642090,113.885429 1304.219971,116.454849 
	C1297.570068,120.318695 1291.346924,123.740562 1283.453247,121.001259 
	C1283.113037,120.883186 1282.573242,121.339508 1281.126099,121.950821 
	C1282.801270,124.860924 1284.098022,127.824333 1286.011597,130.313339 
	C1293.925415,140.606979 1302.325684,150.538177 1309.979248,161.017334 
	C1318.779785,173.067017 1329.020874,183.173187 1342.999146,189.799423 
	C1349.127563,197.796677 1354.893555,206.110519 1361.507324,213.683868 
	C1366.205444,219.063599 1372.047241,223.444611 1377.715820,229.116302 
	C1378.144531,250.590622 1378.916504,272.064514 1378.943604,293.539337 
	C1379.073120,396.037415 1378.759277,498.536621 1379.122070,601.033569 
	C1379.261108,640.317749 1378.570435,679.684692 1383.760254,718.798279 
	C1384.205200,722.152466 1382.734375,724.475891 1378.780396,723.418945 
	C1375.581787,722.563904 1372.418945,721.550781 1369.290527,720.463135 
	C1360.665771,717.464478 1352.101929,714.283875 1343.424438,711.449280 
	C1341.964600,710.972351 1339.397949,711.288086 1338.539307,712.276733 
	C1337.630371,713.323303 1337.549561,715.875916 1338.177734,717.297668 
	C1339.296143,719.829651 1340.901978,722.326050 1342.861938,724.276794 
	C1353.707031,735.070984 1364.744385,745.671814 1375.661621,756.394043 
	C1378.775024,759.451782 1381.707886,762.693176 1384.694458,765.819824 
	C1378.768555,771.521179 1372.095337,763.026489 1366.545654,768.544922 
	C1372.249390,774.218872 1378.087646,778.321655 1385.660400,780.385010 
	C1390.556274,781.718994 1396.874512,783.869873 1399.142944,787.684082 
	C1406.109375,799.398315 1416.098877,807.104675 1427.027710,814.316711 
	C1424.620117,814.038391 1422.216064,813.586121 1419.803711,813.536194 
	C1417.829712,813.495300 1415.845825,813.934021 1412.641357,814.300049 
	C1419.243164,821.279663 1425.641602,824.852417 1433.194580,827.174866 
	C1438.031738,828.662170 1444.205322,831.059570 1446.375854,834.948730 
	C1452.197632,845.380249 1460.299805,853.280396 1470.598022,857.939209 
	C1483.370483,863.717529 1496.814209,868.564880 1510.452393,871.721436 
	C1523.930664,874.840942 1537.976196,875.805603 1551.837158,876.913330 
	C1580.475098,879.201721 1609.090820,878.753479 1637.215332,872.236450 
	C1653.361450,868.494995 1669.050049,862.655518 1685.274658,859.412231 
	C1700.581909,856.352234 1714.121582,849.481018 1728.132080,843.420349 
	C1758.402954,830.325806 1784.477661,809.943970 1813.371460,794.461609 
	C1815.408936,793.369812 1817.433716,792.070679 1819.088867,790.477722 
	C1831.316895,778.707581 1843.973877,767.325012 1855.507812,754.903076 
	C1882.777222,725.534302 1910.607178,696.541199 1927.596680,659.315186 
	C1933.907227,645.488037 1941.903198,632.660583 1944.894287,617.179077 
	C1947.447266,603.964722 1952.995728,591.264038 1957.837646,578.572083 
	C1965.161621,559.374146 1973.526489,540.561279 1980.439819,521.224060 
	C1983.820068,511.768890 1985.456299,501.578491 1986.931030,491.580597 
	C1989.037354,477.302826 1990.379395,462.907196 1991.823486,448.539368 
	C1992.404541,442.756531 1992.834106,436.894043 1992.572754,431.102142 
	C1991.491821,407.162659 1990.501465,383.208099 1988.734863,359.314026 
	C1987.302368,339.939514 1986.202881,320.373932 1982.527954,301.362366 
	C1970.682617,240.083832 1941.691772,187.785904 1896.728394,144.459946 
	C1892.618408,140.499680 1887.662598,137.417480 1882.542358,133.562195 
z"/>
<path fill="#000000" opacity="1.000000" stroke="none" 
	d="
M1342.924072,189.119125 
	C1329.020874,183.173187 1318.779785,173.067017 1309.979248,161.017334 
	C1302.325684,150.538177 1293.925415,140.606979 1286.011597,130.313339 
	C1284.098022,127.824333 1282.801270,124.860924 1281.126099,121.950821 
	C1282.573242,121.339508 1283.113037,120.883186 1283.453247,121.001259 
	C1291.346924,123.740562 1297.570068,120.318695 1304.219971,116.454849 
	C1308.642090,113.885429 1314.322632,113.527039 1319.385376,111.998421 
	C1322.421631,111.081657 1325.353149,109.817284 1328.331665,108.709129 
	C1328.316528,108.050873 1328.301270,107.392624 1328.286133,106.734367 
	C1325.959717,105.956779 1323.648926,105.128334 1321.303345,104.413811 
	C1317.991577,103.405014 1314.420288,102.928200 1311.412964,101.356873 
	C1309.520386,100.367989 1306.973999,97.349251 1307.367798,96.033897 
	C1307.960205,94.056000 1310.757935,91.635925 1312.820923,91.429237 
	C1317.191284,90.991402 1322.064453,90.876190 1326.068726,92.385986 
	C1336.886719,96.464874 1346.023560,94.089592 1355.801392,88.583588 
	C1389.384033,69.673027 1423.798462,52.383133 1459.813599,38.460052 
	C1496.645996,24.221066 1534.597046,15.136494 1574.124756,12.831490 
	C1590.245239,11.891459 1606.362305,10.586200 1622.413086,8.827532 
	C1652.357300,5.546586 1681.092529,10.948453 1709.315796,20.208719 
	C1724.611816,25.227436 1740.092285,29.934525 1754.844238,36.281693 
	C1766.605713,41.342220 1777.339844,48.765629 1788.638672,54.941196 
	C1792.069580,56.816383 1796.130859,57.589413 1799.447510,59.614044 
	C1828.671997,77.454048 1854.610352,99.127014 1876.048828,125.979286 
	C1878.124023,128.578293 1880.373657,131.037888 1882.784424,134.095505 
	C1883.673462,135.594452 1884.290527,136.581879 1884.971924,137.522614 
	C1922.482788,189.303528 1940.538086,247.446686 1942.090088,311.097076 
	C1942.475586,326.903503 1943.739624,342.688507 1944.601318,358.483307 
	C1945.616455,377.092072 1947.031738,395.616699 1943.199097,414.218781 
	C1941.169189,424.071136 1942.315430,434.568695 1940.378906,444.451904 
	C1937.978149,456.703400 1936.531616,469.221710 1930.885010,480.829895 
	C1926.709839,489.413208 1924.533325,498.949341 1921.159912,507.946045 
	C1914.878174,524.699280 1908.323120,541.349854 1901.994873,558.085938 
	C1900.352173,562.430420 1898.459351,566.844116 1897.853271,571.382507 
	C1896.622559,580.599304 1893.332153,588.971191 1889.023682,597.035095 
	C1880.807495,612.412598 1873.860229,628.688782 1863.958984,642.901062 
	C1840.566772,676.478088 1812.228638,705.964844 1783.152100,734.651611 
	C1777.638550,740.091003 1771.160400,744.680054 1764.669678,748.968628 
	C1756.637207,754.275818 1747.949219,758.584045 1739.854370,763.804382 
	C1703.801025,787.055298 1666.247925,806.932129 1624.339233,817.717102 
	C1596.558716,824.866150 1568.680542,831.210510 1539.823120,831.041870 
	C1525.207397,830.956421 1510.582764,829.120422 1495.988403,829.406616 
	C1471.704102,829.882812 1449.711182,821.456116 1427.467773,813.640198 
	C1416.098877,807.104675 1406.109375,799.398315 1399.142944,787.684082 
	C1396.874512,783.869873 1390.556274,781.718994 1385.660400,780.385010 
	C1378.087646,778.321655 1372.249390,774.218872 1366.545654,768.544922 
	C1372.095337,763.026489 1378.768555,771.521179 1384.694458,765.819824 
	C1381.707886,762.693176 1378.775024,759.451782 1375.661621,756.394043 
	C1364.744385,745.671814 1353.707031,735.070984 1342.861938,724.276794 
	C1340.901978,722.326050 1339.296143,719.829651 1338.177734,717.297668 
	C1337.549561,715.875916 1337.630371,713.323303 1338.539307,712.276733 
	C1339.397949,711.288086 1341.964600,710.972351 1343.424438,711.449280 
	C1352.101929,714.283875 1360.665771,717.464478 1369.290527,720.463135 
	C1372.418945,721.550781 1375.581787,722.563904 1378.780396,723.418945 
	C1382.734375,724.475891 1384.205200,722.152466 1383.760254,718.798279 
	C1378.570435,679.684692 1379.261108,640.317749 1379.122070,601.033569 
	C1378.759277,498.536621 1379.073120,396.037415 1378.943604,293.539337 
	C1378.916504,272.064514 1378.144531,250.590622 1377.736816,228.240799 
	C1378.114624,216.426270 1378.529419,205.488541 1378.778320,194.547058 
	C1378.826660,192.427231 1378.599609,190.133652 1377.783936,188.226303 
	C1377.316406,187.132919 1375.006714,185.707626 1374.208740,186.045044 
	C1364.062744,190.336060 1353.571533,190.370758 1342.924072,189.119125 
M1549.908447,703.079834 
	C1583.784302,689.973267 1615.529175,672.681396 1646.634033,654.085510 
	C1665.503540,642.804443 1683.361206,630.494202 1699.722168,615.487976 
	C1742.295288,576.439941 1773.602417,529.872131 1796.603760,477.269073 
	C1806.663818,454.261841 1814.649902,430.540833 1820.276123,406.128479 
	C1822.573730,396.159210 1823.096313,385.654602 1823.348999,375.367096 
	C1823.851440,354.898407 1825.003052,334.296936 1823.334717,313.959656 
	C1821.015991,285.694519 1813.675903,258.247864 1801.498413,232.525665 
	C1795.796875,220.482697 1787.895386,209.481201 1781.096924,197.301788 
	C1767.969360,178.214523 1751.136963,163.038361 1731.707153,150.629471 
	C1707.393799,135.101807 1680.386230,126.965622 1651.951050,126.899361 
	C1630.468140,126.849304 1608.915649,130.672638 1587.512939,133.632019 
	C1577.578491,135.005692 1567.981689,138.670639 1558.135132,140.863068 
	C1539.491333,145.014297 1520.732178,148.653259 1502.112671,152.905975 
	C1493.026001,154.981384 1493.191162,155.377930 1494.698364,164.782532 
	C1496.828125,178.071045 1500.001587,191.320114 1500.674805,204.689468 
	C1502.441162,239.770157 1503.096191,274.906799 1504.192383,310.021240 
	C1504.332642,314.516205 1504.542603,319.010651 1504.585571,323.506653 
	C1504.813354,347.314209 1505.089722,371.122040 1505.140625,394.930176 
	C1505.155273,401.811920 1502.059570,403.797668 1494.641602,401.980682 
	C1494.641602,361.382141 1494.641602,320.655853 1494.641602,280.054932 
	C1487.286255,278.330292 1487.128174,278.438049 1487.009277,285.511108 
	C1486.804688,297.671265 1486.448730,309.832123 1486.468262,321.992188 
	C1486.602173,405.463501 1486.814941,488.934662 1487.020508,572.405823 
	C1487.024780,574.157166 1487.248047,575.907898 1487.375488,577.749695 
	C1492.182251,576.369446 1492.762207,575.816406 1492.791870,571.709106 
	C1493.150635,522.064392 1493.474487,472.419495 1493.802490,422.774597 
	C1493.823853,419.529236 1493.805176,416.283600 1493.805176,412.847534 
	C1496.950806,413.288147 1499.363281,413.626068 1502.110596,414.010895 
	C1502.110596,419.537323 1502.129517,424.847473 1502.107666,430.157440 
	C1501.843750,494.301300 1501.564331,558.445129 1501.310059,622.589050 
	C1501.194458,651.745605 1501.098389,680.902222 1501.075562,710.058899 
	C1501.073242,713.100708 1501.630005,716.142944 1502.082642,720.773376 
	C1518.525757,714.670349 1533.866333,708.976624 1549.908447,703.079834 
M1899.974731,540.484985 
	C1906.141479,519.769714 1912.389404,499.077942 1918.410034,478.320282 
	C1919.698608,473.877533 1920.281616,469.213379 1920.963745,464.617676 
	C1921.388672,461.754395 1920.619507,458.629852 1917.359619,458.676270 
	C1915.625122,458.700958 1913.650024,461.205566 1912.311890,462.987518 
	C1911.385986,464.220306 1911.335083,466.124298 1910.940674,467.739899 
	C1907.942871,480.018127 1905.394653,492.426392 1901.871826,504.551727 
	C1895.489258,526.520386 1889.987671,548.913330 1881.415649,570.032227 
	C1872.034302,593.144836 1858.085938,614.111389 1843.452515,634.422729 
	C1841.623779,636.961121 1840.072388,639.746887 1838.773315,642.591858 
	C1838.358276,643.500427 1838.791260,645.408997 1839.535767,646.058716 
	C1840.253784,646.685486 1842.101562,646.718567 1843.048828,646.229614 
	C1844.783325,645.334167 1846.539673,644.111328 1847.727417,642.588623 
	C1853.964111,634.593628 1860.716064,626.887817 1866.016357,618.296448 
	C1880.857544,594.240112 1891.136353,568.082031 1899.974731,540.484985 
M1466.469482,62.898254 
	C1471.568359,61.434769 1476.808716,60.336063 1481.734253,58.425652 
	C1489.919312,55.250893 1497.649658,50.678158 1506.024170,48.264954 
	C1522.386230,43.550083 1539.067505,39.946815 1555.602173,35.825077 
	C1561.694946,34.306259 1567.837402,32.884304 1573.753784,30.831757 
	C1575.242432,30.315325 1576.562500,27.595882 1576.732422,25.774349 
	C1576.808716,24.956594 1573.981201,23.464823 1572.269531,22.950146 
	C1562.498169,20.012138 1553.072266,22.723999 1543.960327,25.720951 
	C1529.036377,30.629515 1514.151978,35.778400 1499.626221,41.740173 
	C1487.838501,46.578148 1476.582642,52.720390 1465.154785,58.412373 
	C1464.185913,58.894928 1463.699585,60.346672 1462.989136,61.348156 
	C1463.874756,61.889946 1464.760376,62.431736 1466.469482,62.898254 
z"/>
<path fill="#010101" opacity="1.000000" stroke="none" 
	d="
M854.020264,804.975037 
	C843.720764,795.780884 832.823486,787.167786 823.225098,777.292175 
	C781.497192,734.359131 756.681763,682.826965 746.992798,623.916626 
	C742.653137,597.530701 744.685730,571.059082 747.057129,544.672302 
	C750.025879,511.638763 755.519592,479.014130 765.036194,447.175110 
	C772.900146,420.865173 782.153015,395.094757 796.578491,371.524689 
	C810.722534,348.414368 830.045776,330.301453 851.789978,314.478882 
	C871.749329,299.955139 892.657166,287.035522 915.446777,277.533325 
	C939.483826,267.511047 964.352905,260.386444 990.612183,259.252441 
	C991.273560,259.223907 991.948608,259.242981 992.601501,259.343079 
	C994.406128,259.619659 996.202332,259.951080 997.448120,260.165527 
	C980.313660,264.113586 962.716309,268.168335 945.294800,272.182556 
	C945.735229,279.653503 946.254944,280.071960 952.301147,279.138000 
	C970.714233,276.293701 989.112854,273.343994 1007.560486,270.743347 
	C1011.600403,270.173828 1015.832642,270.723297 1019.952881,271.051758 
	C1022.949341,271.290619 1024.937988,270.395569 1026.488892,267.741272 
	C1027.203491,266.518250 1028.914795,264.984711 1030.085449,265.055664 
	C1046.337036,266.040771 1062.932861,265.419281 1078.384033,271.446442 
	C1092.081421,276.789368 1105.561401,282.815338 1118.709473,289.394623 
	C1126.796875,293.441528 1134.437622,298.627563 1141.639160,304.138184 
	C1151.604004,311.763306 1160.993164,320.144409 1170.554321,328.289246 
	C1171.753784,329.310974 1172.596924,330.805176 1173.438599,332.182281 
	C1175.616577,335.746368 1177.098755,339.393372 1181.316284,341.838226 
	C1184.732422,343.818451 1186.569092,348.523102 1189.380615,352.610229 
	C1200.170288,371.711426 1210.087769,390.431641 1215.336548,411.331909 
	C1217.978516,421.852631 1221.682983,432.123047 1225.262695,442.382538 
	C1226.471558,445.846924 1224.837769,447.429993 1222.303711,447.785004 
	C1220.489624,448.039093 1217.720215,447.118073 1216.646118,445.735504 
	C1214.872559,443.452637 1213.873901,440.451965 1212.985229,437.617004 
	C1208.298096,422.663177 1202.881714,408.054535 1194.010864,394.963959 
	C1192.394531,392.578796 1191.433228,388.497009 1187.661255,390.166351 
	C1183.453003,392.028839 1186.588257,395.460114 1187.551636,397.866760 
	C1192.926758,411.293762 1199.741089,424.263794 1203.865479,438.047699 
	C1212.669067,467.469757 1217.586304,497.659515 1217.224976,528.535583 
	C1217.135742,536.162292 1217.211670,543.791016 1217.211670,551.543152 
	C1222.015137,552.025940 1223.936646,549.764771 1223.996338,545.847107 
	C1224.259888,528.525330 1224.895386,511.188354 1224.422485,493.883484 
	C1224.114990,482.623352 1222.026245,471.418243 1221.046387,460.161407 
	C1220.933228,458.861816 1222.555298,456.530396 1223.818115,456.148163 
	C1228.635010,454.690247 1231.783569,457.559448 1232.724976,464.679810 
	C1234.861206,480.841034 1237.380737,496.997406 1238.468140,513.241150 
	C1240.240234,539.715027 1239.807739,566.223145 1233.859863,592.262207 
	C1231.535400,602.437988 1227.929077,612.315796 1225.076416,622.377441 
	C1222.242432,632.373840 1219.961060,642.537781 1216.835449,652.438354 
	C1210.919678,671.177795 1202.996460,689.012817 1192.967163,706.011047 
	C1175.942383,734.865295 1156.754395,761.905457 1131.328369,784.062134 
	C1098.550293,812.625793 1060.259399,828.800476 1017.201538,832.986206 
	C992.535645,835.383972 967.690918,835.965637 942.921448,837.263855 
	C932.283875,837.821350 921.732788,837.741272 911.434021,834.089111 
	C896.365417,828.745544 881.267090,823.619141 868.206970,813.929932 
	C863.728516,810.607422 858.763184,807.941162 854.020264,804.975037 
M809.139099,731.786438 
	C809.664978,732.177002 810.137329,732.715820 810.727234,732.929199 
	C812.249695,733.479553 813.824097,733.886108 815.377747,734.350098 
	C815.202332,732.410950 815.662903,730.063477 814.730164,728.610535 
	C812.122620,724.549133 808.938782,720.857849 805.743652,716.359802 
	C800.713928,706.266724 796.353394,695.763611 790.485107,686.184326 
	C783.150146,674.210876 779.033691,661.282166 775.926941,647.839111 
	C774.547058,641.868347 773.297607,635.857056 771.596130,629.977844 
	C771.131348,628.372070 769.242859,627.178284 768.007751,625.795410 
	C767.284973,627.316040 766.037415,628.807251 765.950012,630.363586 
	C765.774170,633.494385 766.015259,636.691650 766.461731,639.807373 
	C769.029114,657.725220 775.170471,674.516174 782.998169,690.719604 
	C790.000793,705.215271 797.493652,719.433167 809.139099,731.786438 
M942.265564,720.769470 
	C956.624268,727.462341 970.797180,724.771973 984.871216,719.811523 
	C1007.728333,711.755432 1026.488159,697.717224 1041.981934,679.382568 
	C1082.281616,631.693726 1100.964478,575.747192 1103.827026,514.066589 
	C1104.842285,492.191406 1102.194336,470.518250 1096.702271,449.316101 
	C1093.466553,436.824707 1089.359375,424.559082 1085.745605,411.467072 
	C1072.897461,378.064423 1042.954712,360.368835 1007.802307,361.315613 
	C997.210815,361.600891 986.654175,363.648438 976.108704,365.087830 
	C949.027161,368.784363 929.078247,382.169495 916.153809,406.861267 
	C895.697632,445.942047 882.942566,487.310699 881.413452,531.200928 
	C880.034119,570.788208 877.510742,610.700195 888.461304,649.802429 
	C892.946289,665.817444 898.423096,681.107239 908.373047,694.491272 
	C917.058044,706.173889 927.578552,715.644409 942.265564,720.769470 
z"/>
<path fill="#010101" opacity="1.000000" stroke="none" 
	d="
M2124.775879,804.388123 
	C2116.143311,796.815735 2107.163330,789.600891 2098.938232,781.609375 
	C2062.640625,746.342346 2039.077637,703.573242 2025.049805,655.213928 
	C2016.107056,624.385071 2014.687622,593.014160 2017.079102,561.222168 
	C2020.284180,518.616272 2026.399658,476.521118 2040.110474,435.929413 
	C2045.991333,418.518311 2052.938721,401.367889 2060.749756,384.732208 
	C2071.816895,361.162476 2088.764404,341.929047 2108.933594,325.611267 
	C2134.245605,305.132751 2161.406494,287.540955 2191.786865,275.512085 
	C2214.115723,266.671082 2237.164795,260.371490 2261.369141,259.321442 
	C2262.033203,259.292664 2262.710693,259.176636 2263.359375,259.265930 
	C2265.332275,259.537628 2267.293945,259.890137 2268.936279,260.158325 
	C2251.772705,264.102844 2234.351318,268.106567 2217.177979,272.053345 
	C2216.771973,279.360413 2217.556641,280.099823 2223.473145,279.184723 
	C2241.881348,276.337585 2260.273682,273.376434 2278.719482,270.797241 
	C2283.087646,270.186432 2287.656738,271.152679 2292.100830,270.874725 
	C2293.904053,270.761963 2296.267578,269.708313 2297.237061,268.299133 
	C2299.074463,265.628448 2300.978027,264.605194 2304.226318,264.970917 
	C2315.955078,266.291321 2328.032715,266.057159 2339.383057,268.838898 
	C2357.378418,273.249176 2374.622803,280.341217 2390.760010,289.647705 
	C2398.479736,294.099640 2406.142334,298.804474 2413.194092,304.223358 
	C2423.278076,311.972351 2432.778076,320.481476 2442.529785,328.663086 
	C2442.783936,328.876404 2443.234619,329.005280 2443.311279,329.259033 
	C2446.217529,338.854980 2456.282227,342.989990 2460.636963,352.223236 
	C2471.350586,371.318939 2481.398438,389.985474 2486.698486,410.875397 
	C2489.325684,421.230377 2493.108398,431.296967 2496.493408,441.452332 
	C2497.575928,444.700104 2497.128174,446.874664 2493.593750,448.043854 
	C2490.246338,449.151123 2488.551270,447.405640 2487.349854,444.749268 
	C2486.187256,442.178467 2485.087891,439.571198 2484.121094,436.921417 
	C2481.559326,429.900543 2479.545654,422.637543 2476.454834,415.862915 
	C2472.814209,407.883575 2468.421875,400.227631 2463.981689,392.650604 
	C2463.167969,391.261963 2460.568604,390.919617 2458.793457,390.094299 
	C2458.547607,391.951935 2457.687988,393.994202 2458.179688,395.630249 
	C2459.322266,399.430481 2461.147217,403.022461 2462.642090,406.720459 
	C2468.981689,422.402496 2476.156738,437.659210 2479.782227,454.463776 
	C2485.102295,479.123138 2488.797607,503.848022 2488.858398,529.083496 
	C2488.876465,536.553223 2488.861084,544.023071 2488.861084,551.614868 
	C2495.226562,551.972778 2495.651611,547.673340 2495.719971,543.690063 
	C2495.971680,529.033081 2496.503174,514.350525 2495.912598,499.718567 
	C2495.377930,486.473480 2493.438232,473.288269 2492.365479,460.056732 
	C2492.264404,458.808777 2493.654541,456.662689 2494.831543,456.225739 
	C2499.417725,454.523407 2503.100342,457.354340 2503.902832,463.254547 
	C2505.852295,477.591187 2507.701904,491.943298 2509.400635,506.311768 
	C2512.115234,529.273743 2511.655762,552.355286 2508.193848,575.061523 
	C2505.306641,594.000732 2499.979004,612.601868 2495.123291,631.193665 
	C2492.367920,641.743896 2488.423340,651.986206 2484.950439,662.345764 
	C2479.267578,679.296692 2470.949951,694.963196 2461.846191,710.289490 
	C2444.988770,738.668518 2425.500488,764.857483 2400.123779,786.303467 
	C2368.155518,813.319885 2331.081299,828.683044 2289.698486,832.862122 
	C2264.389893,835.417847 2238.877930,836.031128 2213.444336,837.238586 
	C2203.522217,837.709656 2193.692871,837.663696 2183.924316,834.307373 
	C2168.467529,828.996582 2153.136719,823.702454 2139.721191,813.990723 
	C2134.931885,810.523682 2129.768555,807.573975 2124.775879,804.388123 
M2076.678223,715.412415 
	C2075.035889,712.191711 2073.387695,708.973999 2071.752441,705.749695 
	C2065.834473,694.079102 2058.917236,682.788879 2054.282959,670.628723 
	C2049.463623,657.982849 2046.903809,644.481079 2043.223145,631.390869 
	C2042.624390,629.261353 2041.337646,627.325256 2040.369019,625.299744 
	C2039.740112,625.397095 2039.111328,625.494385 2038.482422,625.591736 
	C2038.028687,627.541443 2037.133911,629.509094 2037.212280,631.437134 
	C2037.380493,635.578369 2037.831055,639.737854 2038.551758,643.821777 
	C2042.526855,666.347717 2051.570068,687.035583 2062.776367,706.702515 
	C2067.808838,715.534424 2074.823975,723.236816 2081.146973,732.063110 
	C2083.079834,732.814941 2085.012939,733.566833 2086.945801,734.318726 
	C2086.548340,732.130005 2086.732422,729.578186 2085.637207,727.825378 
	C2083.062988,723.704712 2079.877930,719.965820 2076.678223,715.412415 
M2213.622803,720.356506 
	C2228.231689,728.236877 2242.681885,724.505615 2256.974365,719.499695 
	C2284.333984,709.916992 2305.086426,691.555115 2322.110107,668.799194 
	C2354.903320,624.963806 2371.410889,575.135742 2374.978760,520.828125 
	C2376.987061,490.264587 2372.150635,460.481567 2363.475830,431.257477 
	C2361.553955,424.782990 2359.092041,418.468750 2357.026611,411.335907 
	C2344.418945,378.783386 2317.521973,362.044586 2283.538818,361.373932 
	C2269.081055,361.088593 2254.475830,364.402252 2240.059326,366.810333 
	C2217.824951,370.524261 2201.497559,382.703735 2190.329834,402.374054 
	C2166.779053,443.854309 2153.986084,488.638123 2152.495605,535.975098 
	C2151.306152,573.756958 2149.454346,611.818726 2159.740234,649.159302 
	C2165.268311,669.227112 2172.723389,687.854370 2187.113525,703.128418 
	C2194.339111,710.797546 2202.617188,717.108887 2213.622803,720.356506 
z"/>
<path fill="#010101" opacity="1.000000" stroke="none" 
	d="
M100.904488,192.132507 
	C81.615349,172.853745 62.205055,153.693176 43.162987,134.173386 
	C40.182751,131.118393 39.155350,126.246765 36.720379,122.547241 
	C34.140472,118.627510 31.424208,114.570343 27.935843,111.526237 
	C21.933720,106.288506 15.306931,101.762550 8.895747,97.000557 
	C7.326959,95.835320 5.577812,94.912895 3.911587,93.878838 
	C4.466765,93.010834 5.021944,92.142838 5.577122,91.274834 
	C10.492291,92.677818 15.382953,94.176552 20.332962,95.443413 
	C22.810366,96.077446 25.396038,96.288460 27.932743,96.690796 
	C28.054857,93.652138 29.097832,90.262566 28.102192,87.649857 
	C26.189245,82.629990 23.173803,78.020493 20.506298,73.302620 
	C19.400351,71.346596 18.013474,69.549416 16.754353,67.679993 
	C16.976082,67.146187 17.197811,66.612381 17.419538,66.078568 
	C25.020016,67.179001 32.600994,68.444000 40.224812,69.347458 
	C59.226768,71.599274 78.206444,74.749268 97.275246,75.498840 
	C112.136971,76.083023 127.175285,74.081741 142.034058,72.358162 
	C161.181870,70.137062 180.206894,66.877541 199.327438,64.393463 
	C210.847198,62.896847 222.479156,62.269249 234.004166,60.805954 
	C247.067078,59.147392 260.049774,56.866611 273.097839,55.079166 
	C295.309326,52.036423 317.540710,49.136921 339.771057,46.233540 
	C371.106628,42.140980 402.421967,37.874069 433.798767,34.123665 
	C451.793549,31.972784 469.862030,30.028465 487.952789,29.195566 
	C510.311523,28.166172 531.544556,24.335066 551.888245,14.154175 
	C571.910950,4.133945 593.063843,2.323443 613.794250,13.173240 
	C619.933289,16.386244 625.548096,20.588118 631.539429,24.104435 
	C633.212097,25.086069 635.494812,25.962027 637.289246,25.657633 
	C654.938965,22.663664 668.916626,27.897188 677.952026,43.776203 
	C680.020508,47.411381 681.274536,51.747650 681.890015,55.911079 
	C682.639587,60.981941 682.318176,66.211128 682.497070,72.173264 
	C686.137085,81.532173 689.701416,90.106194 693.352234,98.643181 
	C698.711853,111.175789 698.226807,122.770050 690.233826,134.530609 
	C684.259033,143.321625 677.917969,150.864410 667.638367,154.406158 
	C666.237915,154.888687 664.995850,155.812546 663.636108,156.434982 
	C649.579956,162.869202 635.589233,169.454514 621.418884,175.627151 
	C614.889343,178.471436 608.072754,179.167831 600.142883,174.294952 
	C615.221130,164.476837 629.391113,155.250122 644.288269,145.549896 
	C638.481384,141.120209 633.531555,141.872437 628.671265,143.744766 
	C623.557922,145.714630 618.615601,148.123779 613.562744,150.256226 
	C602.249512,155.030655 590.983398,159.933243 579.522034,164.323990 
	C577.532349,165.086197 574.679199,163.594513 572.224915,163.143875 
	C573.275146,160.875397 574.249329,158.566498 575.421204,156.362717 
	C575.779053,155.689835 576.632935,155.227142 577.340210,154.802261 
	C582.327393,151.806244 587.331665,148.838562 592.338440,145.875183 
	C596.367310,143.490570 600.407166,141.124603 605.121338,138.350769 
	C596.543823,135.949829 447.540436,151.919052 439.303955,155.995758 
	C442.117767,158.010040 444.704437,159.669495 447.075470,161.594513 
	C454.673065,167.762894 462.761993,173.466827 469.594727,180.400970 
	C478.115143,189.047928 480.857117,200.133942 477.088104,211.793686 
	C472.391510,226.323105 466.922577,240.610916 461.523010,254.903275 
	C452.323914,279.252625 446.974060,304.038940 447.762390,330.421265 
	C448.792206,364.883850 448.005859,399.400421 448.031616,433.893768 
	C448.033630,436.573242 448.277802,439.019012 444.999603,440.412323 
	C444.027954,440.825348 443.438019,443.472321 443.612305,444.987579 
	C444.079407,449.048004 445.605713,453.032654 445.732452,457.078064 
	C446.254333,473.730499 446.622986,490.393768 446.667999,507.054077 
	C446.869751,581.699219 447.085571,656.344971 446.919128,730.989685 
	C446.891052,743.576172 445.750580,756.272278 443.838593,768.720276 
	C439.253387,798.572998 423.846680,821.847229 398.942291,838.873840 
	C398.266174,839.335938 397.176758,839.809509 397.081787,840.405579 
	C396.475189,844.212585 393.407898,844.149475 390.710938,844.720947 
	C377.214050,842.480957 369.518799,832.403625 361.422363,822.933960 
	C343.623962,802.116516 330.380859,778.892700 325.768066,751.591370 
	C324.314545,742.988525 324.456268,734.048889 324.530579,725.269043 
	C324.688446,706.615967 325.664948,687.966003 325.634277,669.315857 
	C325.414795,535.868713 325.084900,402.421600 324.606262,268.975159 
	C324.555542,254.832321 323.318024,240.693726 322.503113,225.755554 
	C321.897217,219.987122 321.805206,214.941742 320.862244,210.060760 
	C318.817719,199.478287 316.543640,188.928741 313.942871,178.470322 
	C312.776520,173.780029 309.210602,171.900711 304.286255,172.975540 
	C296.488403,174.677582 288.640472,176.159363 280.868927,177.970993 
	C245.894836,186.123810 210.937073,194.346725 175.979630,202.570740 
	C152.296234,208.142441 129.419800,206.469193 107.570602,195.146088 
	C105.408623,194.025665 103.129333,193.131622 100.904488,192.132507 
M428.964661,332.696838 
	C428.408447,336.718109 427.374969,340.738525 427.367676,344.760773 
	C427.257599,405.391235 427.219666,466.022034 427.306396,526.652527 
	C427.340973,550.803284 427.683929,574.953979 428.023071,599.102783 
	C428.047211,600.820984 428.695312,603.237732 429.919434,604.100220 
	C433.709503,606.770508 436.851349,604.939758 437.054291,599.842590 
	C437.696594,583.710205 438.536987,567.567078 438.504913,551.429749 
	C438.363953,480.473358 437.943115,409.517609 437.625183,338.561615 
	C437.616302,336.579742 437.624084,334.597778 437.624084,331.631012 
	C434.622986,331.855957 432.123871,332.043304 428.964661,332.696838 
M189.092880,71.888763 
	C179.436157,73.196968 169.779434,74.505180 160.223694,75.799706 
	C159.961960,82.016853 160.284760,82.388023 164.153351,81.875404 
	C187.061844,78.839905 209.944077,75.567749 232.899353,72.934853 
	C254.552307,70.451317 276.342804,69.129532 297.968231,66.452187 
	C331.284088,62.327515 364.520935,57.554840 397.768585,52.895088 
	C407.125519,51.583691 416.430389,49.840336 425.690247,47.956398 
	C427.238983,47.641308 428.434296,45.588982 429.792938,44.339409 
	C428.345612,43.111813 427.050323,41.578766 425.400635,40.757847 
	C424.184448,40.152637 422.470306,40.225079 421.037933,40.424854 
	C391.231720,44.581898 361.453857,48.948914 331.624664,52.931770 
	C320.097809,54.470863 308.437775,54.984699 296.875153,56.290730 
	C281.548462,58.021919 266.219086,59.808155 250.961182,62.049484 
	C230.587433,65.042305 210.281174,68.494781 189.092880,71.888763 
z"/>
<path fill="#999999" opacity="1.000000" stroke="none" 
	d="
M1427.247803,813.978455 
	C1449.711182,821.456116 1471.704102,829.882812 1495.988403,829.406616 
	C1510.582764,829.120422 1525.207397,830.956421 1539.823120,831.041870 
	C1568.680542,831.210510 1596.558716,824.866150 1624.339233,817.717102 
	C1666.247925,806.932129 1703.801025,787.055298 1739.854370,763.804382 
	C1747.949219,758.584045 1756.637207,754.275818 1764.669678,748.968628 
	C1771.160400,744.680054 1777.638550,740.091003 1783.152100,734.651611 
	C1812.228638,705.964844 1840.566772,676.478088 1863.958984,642.901062 
	C1873.860229,628.688782 1880.807495,612.412598 1889.023682,597.035095 
	C1893.332153,588.971191 1896.622559,580.599304 1897.853271,571.382507 
	C1898.459351,566.844116 1900.352173,562.430420 1901.994873,558.085938 
	C1908.323120,541.349854 1914.878174,524.699280 1921.159912,507.946045 
	C1924.533325,498.949341 1926.709839,489.413208 1930.885010,480.829895 
	C1936.531616,469.221710 1937.978149,456.703400 1940.378906,444.451904 
	C1942.315430,434.568695 1941.169189,424.071136 1943.199097,414.218781 
	C1947.031738,395.616699 1945.616455,377.092072 1944.601318,358.483307 
	C1943.739624,342.688507 1942.475586,326.903503 1942.090088,311.097076 
	C1940.538086,247.446686 1922.482788,189.303528 1884.971924,137.522614 
	C1884.290527,136.581879 1883.673462,135.594452 1883.062988,134.278198 
	C1887.662598,137.417480 1892.618408,140.499680 1896.728394,144.459946 
	C1941.691772,187.785904 1970.682617,240.083832 1982.527954,301.362366 
	C1986.202881,320.373932 1987.302368,339.939514 1988.734863,359.314026 
	C1990.501465,383.208099 1991.491821,407.162659 1992.572754,431.102142 
	C1992.834106,436.894043 1992.404541,442.756531 1991.823486,448.539368 
	C1990.379395,462.907196 1989.037354,477.302826 1986.931030,491.580597 
	C1985.456299,501.578491 1983.820068,511.768890 1980.439819,521.224060 
	C1973.526489,540.561279 1965.161621,559.374146 1957.837646,578.572083 
	C1952.995728,591.264038 1947.447266,603.964722 1944.894287,617.179077 
	C1941.903198,632.660583 1933.907227,645.488037 1927.596680,659.315186 
	C1910.607178,696.541199 1882.777222,725.534302 1855.507812,754.903076 
	C1843.973877,767.325012 1831.316895,778.707581 1819.088867,790.477722 
	C1817.433716,792.070679 1815.408936,793.369812 1813.371460,794.461609 
	C1784.477661,809.943970 1758.402954,830.325806 1728.132080,843.420349 
	C1714.121582,849.481018 1700.581909,856.352234 1685.274658,859.412231 
	C1669.050049,862.655518 1653.361450,868.494995 1637.215332,872.236450 
	C1609.090820,878.753479 1580.475098,879.201721 1551.837158,876.913330 
	C1537.976196,875.805603 1523.930664,874.840942 1510.452393,871.721436 
	C1496.814209,868.564880 1483.370483,863.717529 1470.598022,857.939209 
	C1460.299805,853.280396 1452.197632,845.380249 1446.375854,834.948730 
	C1444.205322,831.059570 1438.031738,828.662170 1433.194580,827.174866 
	C1425.641602,824.852417 1419.243164,821.279663 1412.641357,814.300049 
	C1415.845825,813.934021 1417.829712,813.495300 1419.803711,813.536194 
	C1422.216064,813.586121 1424.620117,814.038391 1427.247803,813.978455 
M1902.475098,679.960571 
	C1910.047974,667.277405 1918.319458,654.952454 1925.045654,641.835144 
	C1938.373657,615.842712 1946.725342,587.899841 1954.933838,559.986938 
	C1959.427856,544.705444 1963.234985,529.221130 1967.290649,513.812256 
	C1968.229858,510.244019 1968.595215,506.187012 1964.072266,505.223602 
	C1959.366089,504.221161 1959.099365,508.870361 1958.306519,511.833710 
	C1955.688599,521.618042 1953.646484,531.558655 1950.945068,541.317932 
	C1944.618164,564.175232 1939.409912,587.470703 1931.195557,609.643005 
	C1921.870117,634.814270 1906.611328,657.130005 1891.356812,679.195679 
	C1889.655518,681.656616 1887.536987,683.939758 1886.393311,686.636658 
	C1885.629639,688.437317 1886.251587,690.825500 1886.253418,692.950867 
	C1888.286255,692.388000 1890.858887,692.415527 1892.246216,691.146790 
	C1895.786255,687.909241 1898.797363,684.093445 1902.475098,679.960571 
z"/>
<path fill="#999999" opacity="1.000000" stroke="none" 
	d="
M390.734436,845.053162 
	C393.407898,844.149475 396.475189,844.212585 397.081787,840.405579 
	C397.176758,839.809509 398.266174,839.335938 398.942291,838.873840 
	C423.846680,821.847229 439.253387,798.572998 443.838593,768.720276 
	C445.750580,756.272278 446.891052,743.576172 446.919128,730.989685 
	C447.085571,656.344971 446.869751,581.699219 446.667999,507.054077 
	C446.622986,490.393768 446.254333,473.730499 445.732452,457.078064 
	C445.605713,453.032654 444.079407,449.048004 443.612305,444.987579 
	C443.438019,443.472321 444.027954,440.825348 444.999603,440.412323 
	C448.277802,439.019012 448.033630,436.573242 448.031616,433.893768 
	C448.005859,399.400421 448.792206,364.883850 447.762390,330.421265 
	C446.974060,304.038940 452.323914,279.252625 461.523010,254.903275 
	C466.922577,240.610916 472.391510,226.323105 477.088104,211.793686 
	C480.857117,200.133942 478.115143,189.047928 469.594727,180.400970 
	C462.761993,173.466827 454.673065,167.762894 447.075470,161.594513 
	C444.704437,159.669495 442.117767,158.010040 439.303955,155.995758 
	C447.540436,151.919052 596.543823,135.949829 605.121338,138.350769 
	C600.407166,141.124603 596.367310,143.490570 592.338440,145.875183 
	C587.331665,148.838562 582.327393,151.806244 577.340210,154.802261 
	C576.632935,155.227142 575.779053,155.689835 575.421204,156.362717 
	C574.249329,158.566498 573.275146,160.875397 572.224915,163.143875 
	C574.679199,163.594513 577.532349,165.086197 579.522034,164.323990 
	C590.983398,159.933243 602.249512,155.030655 613.562744,150.256226 
	C618.615601,148.123779 623.557922,145.714630 628.671265,143.744766 
	C633.531555,141.872437 638.481384,141.120209 644.288269,145.549896 
	C629.391113,155.250122 615.221130,164.476837 600.142883,174.294952 
	C608.072754,179.167831 614.889343,178.471436 621.418884,175.627151 
	C635.589233,169.454514 649.579956,162.869202 663.636108,156.434982 
	C664.995850,155.812546 666.237915,154.888687 667.638367,154.406158 
	C677.917969,150.864410 684.259033,143.321625 690.233826,134.530609 
	C698.226807,122.770050 698.711853,111.175789 693.352234,98.643181 
	C689.701416,90.106194 686.137085,81.532173 682.639771,72.602463 
	C685.739990,72.073235 688.733276,71.806450 691.729004,71.776833 
	C713.670227,71.559921 729.076355,86.474678 728.889038,108.415382 
	C728.820129,116.479408 730.626465,123.518745 734.068604,130.819000 
	C738.137878,139.449371 741.195190,148.753311 743.184998,158.086365 
	C744.206665,162.878174 743.032593,168.868912 740.924011,173.426437 
	C737.741821,180.304779 732.907410,186.425476 728.684692,192.808289 
	C728.074646,193.730286 727.071350,194.552444 726.064453,195.027771 
	C706.662354,204.187210 687.327087,213.498779 667.753479,222.278458 
	C661.489990,225.087936 654.633240,225.404633 647.066772,221.188629 
	C653.002441,217.030762 658.146423,213.244186 663.475342,209.738937 
	C670.843018,204.892685 678.410645,200.349197 685.745789,195.455872 
	C687.197876,194.487122 687.986084,192.523209 689.080444,191.018250 
	C687.324951,190.335403 685.365906,188.772156 683.849304,189.122787 
	C677.452271,190.601822 670.966187,192.115463 664.921143,194.607330 
	C653.401611,199.355881 642.185364,204.836166 630.783508,209.877655 
	C628.683105,210.806366 626.301025,211.538300 624.048340,211.539902 
	C622.306885,211.541138 620.100647,210.653793 619.016418,209.381424 
	C618.466553,208.736191 619.487000,205.865173 620.585571,204.872589 
	C623.648865,202.104813 626.954346,199.515472 630.474365,197.362976 
	C636.292786,193.805038 642.367676,190.668060 648.301819,187.296341 
	C649.394348,186.675598 650.332275,185.782867 651.575500,184.837799 
	C642.802612,182.883209 499.481659,197.680588 485.915100,202.077423 
	C488.194885,203.957123 489.925262,205.428299 491.702057,206.841125 
	C499.495239,213.038025 507.809448,218.686569 514.979370,225.534271 
	C524.668457,234.787918 527.725403,246.680634 523.533997,259.464233 
	C518.565247,274.618927 512.296143,289.345856 507.272675,304.484497 
	C502.933441,317.561157 499.477051,330.934845 495.807312,344.226074 
	C495.111450,346.746307 495.032623,349.494873 495.026550,352.138916 
	C494.928467,394.803009 494.880798,437.467194 494.852448,480.131378 
	C494.850647,482.840820 494.984863,485.257812 491.862854,486.806335 
	C490.779602,487.343628 490.068024,489.898132 490.216095,491.431976 
	C490.878967,498.299347 492.324219,505.107788 492.710327,511.981110 
	C493.205170,520.789856 492.991974,529.640320 493.021088,538.472961 
	C493.295166,621.625488 493.951172,704.779846 493.574066,787.929504 
	C493.464050,812.176575 489.009399,836.104980 474.578125,856.689026 
	C466.721680,867.895081 457.531891,877.989197 445.656860,885.245972 
	C444.955475,885.674622 443.937622,886.153625 443.767365,886.795044 
	C442.137604,892.935242 437.482452,891.473633 433.789917,890.235229 
	C429.627655,888.839233 425.224548,886.958557 422.039734,884.063660 
	C409.659485,872.810852 399.202515,859.881958 390.734436,845.053162 
M484.968811,470.500000 
	C484.667786,441.361298 484.400757,412.222107 483.976227,383.085205 
	C483.952240,381.440216 482.859589,378.615662 481.870911,378.429504 
	C479.831451,378.045441 477.083374,378.492126 475.477753,379.714630 
	C474.306976,380.606079 474.131348,383.286835 474.134827,385.168762 
	C474.296234,472.104279 474.547699,559.039612 474.675140,645.975220 
	C474.680634,649.729797 475.864349,651.703308 479.591858,651.830444 
	C483.426605,651.961182 483.726044,648.944458 483.885223,646.327026 
	C484.379761,638.194031 484.938141,630.047729 484.952179,621.905701 
	C485.038544,571.770569 484.982086,521.635254 484.968811,470.500000 
z"/>
<path fill="#999999" opacity="1.000000" stroke="none" 
	d="
M2124.729004,804.733154 
	C2129.768555,807.573975 2134.931885,810.523682 2139.721191,813.990723 
	C2153.136719,823.702454 2168.467529,828.996582 2183.924316,834.307373 
	C2193.692871,837.663696 2203.522217,837.709656 2213.444336,837.238586 
	C2238.877930,836.031128 2264.389893,835.417847 2289.698486,832.862122 
	C2331.081299,828.683044 2368.155518,813.319885 2400.123779,786.303467 
	C2425.500488,764.857483 2444.988770,738.668518 2461.846191,710.289490 
	C2470.949951,694.963196 2479.267578,679.296692 2484.950439,662.345764 
	C2488.423340,651.986206 2492.367920,641.743896 2495.123291,631.193665 
	C2499.979004,612.601868 2505.306641,594.000732 2508.193848,575.061523 
	C2511.655762,552.355286 2512.115234,529.273743 2509.400635,506.311768 
	C2507.701904,491.943298 2505.852295,477.591187 2503.902832,463.254547 
	C2503.100342,457.354340 2499.417725,454.523407 2494.831543,456.225739 
	C2493.654541,456.662689 2492.264404,458.808777 2492.365479,460.056732 
	C2493.438232,473.288269 2495.377930,486.473480 2495.912598,499.718567 
	C2496.503174,514.350525 2495.971680,529.033081 2495.719971,543.690063 
	C2495.651611,547.673340 2495.226562,551.972778 2488.861084,551.614868 
	C2488.861084,544.023071 2488.876465,536.553223 2488.858398,529.083496 
	C2488.797607,503.848022 2485.102295,479.123138 2479.782227,454.463776 
	C2476.156738,437.659210 2468.981689,422.402496 2462.642090,406.720459 
	C2461.147217,403.022461 2459.322266,399.430481 2458.179688,395.630249 
	C2457.687988,393.994202 2458.547607,391.951935 2458.793457,390.094299 
	C2460.568604,390.919617 2463.167969,391.261963 2463.981689,392.650604 
	C2468.421875,400.227631 2472.814209,407.883575 2476.454834,415.862915 
	C2479.545654,422.637543 2481.559326,429.900543 2484.121094,436.921417 
	C2485.087891,439.571198 2486.187256,442.178467 2487.349854,444.749268 
	C2488.551270,447.405640 2490.246338,449.151123 2493.593750,448.043854 
	C2497.128174,446.874664 2497.575928,444.700104 2496.493408,441.452332 
	C2493.108398,431.296967 2489.325684,421.230377 2486.698486,410.875397 
	C2481.398438,389.985474 2471.350586,371.318939 2460.908691,352.422363 
	C2463.067871,353.079681 2465.567627,353.686554 2467.285645,355.188019 
	C2474.800537,361.756256 2482.088867,368.584106 2489.460205,375.316864 
	C2489.583008,375.429260 2489.745361,375.510345 2489.837891,375.642029 
	C2496.791748,385.542786 2504.351807,395.083588 2510.517822,405.453339 
	C2516.701904,415.852905 2522.157471,426.810394 2526.711914,438.019318 
	C2531.316406,449.351349 2534.440918,461.286194 2538.181885,472.967285 
	C2539.977539,478.573822 2541.866211,484.161560 2543.315430,489.858978 
	C2543.610107,491.017456 2542.350586,493.604004 2541.404541,493.827454 
	C2539.511963,494.274658 2536.259277,494.282104 2535.490234,493.157013 
	C2533.278320,489.921783 2531.905273,486.079803 2530.416016,482.389984 
	C2526.188965,471.917877 2522.295166,461.304260 2517.797607,450.951752 
	C2515.905518,446.597229 2513.031738,442.604095 2510.162598,438.778137 
	C2509.277100,437.597137 2506.930908,437.511261 2505.253662,436.924011 
	C2505.064453,438.528320 2504.276123,440.360138 2504.784912,441.699493 
	C2507.794189,449.625366 2510.789307,457.584320 2514.374023,465.258820 
	C2524.060791,485.996429 2528.274902,508.124939 2531.995117,530.474915 
	C2535.350342,550.630676 2535.301025,570.893860 2535.208252,591.193604 
	C2535.198486,593.324890 2535.206787,595.456299 2535.206787,597.557983 
	C2539.812744,598.844727 2541.816406,596.979065 2541.997559,593.080078 
	C2543.325684,564.470276 2544.431885,535.856567 2539.075195,507.482330 
	C2538.510010,504.488586 2539.550293,502.954437 2542.269287,502.421600 
	C2545.885742,501.712830 2548.792969,503.118927 2549.663086,506.669922 
	C2551.084229,512.468872 2552.316162,518.366272 2552.956543,524.294556 
	C2554.706299,540.490295 2557.338867,556.722412 2557.358887,572.942871 
	C2557.390137,598.328552 2557.159180,623.845337 2549.476074,648.571045 
	C2545.257812,662.146362 2542.344238,676.125793 2538.165771,689.714966 
	C2530.575928,714.398621 2520.352539,737.882019 2506.693359,759.971863 
	C2491.899658,783.896362 2475.442627,806.455078 2455.069824,825.816345 
	C2436.571045,843.396729 2415.016113,856.592407 2391.264893,866.083740 
	C2365.650879,876.319397 2338.756836,880.321289 2311.472168,882.043274 
	C2294.870850,883.091003 2278.194824,882.978027 2261.599365,884.090637 
	C2236.203613,885.793213 2213.763428,876.954773 2192.696533,864.529114 
	C2170.534180,851.457581 2150.542725,835.345764 2133.490723,815.870728 
	C2130.433594,812.379272 2127.612549,808.680969 2124.729004,804.733154 
z"/>
<path fill="#999999" opacity="1.000000" stroke="none" 
	d="
M853.905884,805.323914 
	C858.763184,807.941162 863.728516,810.607422 868.206970,813.929932 
	C881.267090,823.619141 896.365417,828.745544 911.434021,834.089111 
	C921.732788,837.741272 932.283875,837.821350 942.921448,837.263855 
	C967.690918,835.965637 992.535645,835.383972 1017.201538,832.986206 
	C1060.259399,828.800476 1098.550293,812.625793 1131.328369,784.062134 
	C1156.754395,761.905457 1175.942383,734.865295 1192.967163,706.011047 
	C1202.996460,689.012817 1210.919678,671.177795 1216.835449,652.438354 
	C1219.961060,642.537781 1222.242432,632.373840 1225.076416,622.377441 
	C1227.929077,612.315796 1231.535400,602.437988 1233.859863,592.262207 
	C1239.807739,566.223145 1240.240234,539.715027 1238.468140,513.241150 
	C1237.380737,496.997406 1234.861206,480.841034 1232.724976,464.679810 
	C1231.783569,457.559448 1228.635010,454.690247 1223.818115,456.148163 
	C1222.555298,456.530396 1220.933228,458.861816 1221.046387,460.161407 
	C1222.026245,471.418243 1224.114990,482.623352 1224.422485,493.883484 
	C1224.895386,511.188354 1224.259888,528.525330 1223.996338,545.847107 
	C1223.936646,549.764771 1222.015137,552.025940 1217.211670,551.543152 
	C1217.211670,543.791016 1217.135742,536.162292 1217.224976,528.535583 
	C1217.586304,497.659515 1212.669067,467.469757 1203.865479,438.047699 
	C1199.741089,424.263794 1192.926758,411.293762 1187.551636,397.866760 
	C1186.588257,395.460114 1183.453003,392.028839 1187.661255,390.166351 
	C1191.433228,388.497009 1192.394531,392.578796 1194.010864,394.963959 
	C1202.881714,408.054535 1208.298096,422.663177 1212.985229,437.617004 
	C1213.873901,440.451965 1214.872559,443.452637 1216.646118,445.735504 
	C1217.720215,447.118073 1220.489624,448.039093 1222.303711,447.785004 
	C1224.837769,447.429993 1226.471558,445.846924 1225.262695,442.382538 
	C1221.682983,432.123047 1217.978516,421.852631 1215.336548,411.331909 
	C1210.087769,390.431641 1200.170288,371.711426 1189.620728,352.853516 
	C1191.345703,353.097626 1193.514404,353.225464 1194.796509,354.357361 
	C1202.379150,361.051453 1209.826416,367.904694 1217.146973,374.885071 
	C1218.760254,376.423401 1219.522827,378.815765 1220.952759,380.593140 
	C1223.136230,383.307129 1225.645386,385.757721 1227.857544,388.450623 
	C1230.153931,391.246002 1232.765259,393.942780 1234.367065,397.121887 
	C1242.691406,413.643524 1251.190430,430.104370 1258.690796,447.002625 
	C1262.479126,455.537964 1264.280396,464.954712 1266.988281,473.970459 
	C1268.519531,479.067871 1270.238037,484.118896 1271.491699,489.283173 
	C1271.818726,490.630798 1271.160522,493.178406 1270.186768,493.678192 
	C1268.242554,494.676086 1265.475586,496.426086 1263.756714,493.093842 
	C1262.088745,489.860138 1260.462769,486.584290 1259.119263,483.207245 
	C1255.025635,472.916870 1251.354004,462.448792 1246.953003,452.294769 
	C1244.810425,447.351532 1241.509033,442.889069 1238.538208,438.335602 
	C1237.127808,436.173920 1235.298218,436.202606 1231.480469,438.327637 
	C1241.976562,463.433899 1253.406250,488.354401 1258.085205,515.627808 
	C1262.749268,542.815125 1264.801147,570.139465 1263.868530,597.729370 
	C1264.387939,598.067993 1264.907471,598.406677 1265.427002,598.745361 
	C1266.964233,597.312073 1268.991455,596.132751 1269.902588,594.374939 
	C1270.835815,592.574402 1270.943848,590.208435 1270.952515,588.088074 
	C1271.024658,570.424805 1271.311768,552.752808 1270.852905,535.101135 
	C1270.622070,526.227356 1269.122192,517.369812 1267.880859,508.549347 
	C1267.518311,505.972046 1266.342773,503.153198 1269.897339,502.727417 
	C1272.952271,502.361572 1276.917114,502.100769 1277.988525,506.400482 
	C1279.223022,511.355194 1280.417969,516.374512 1280.956543,521.437439 
	C1282.492798,535.879700 1283.881836,550.343506 1284.975342,564.825562 
	C1287.298706,595.592773 1284.801758,625.898743 1276.015747,655.610962 
	C1272.385376,667.887939 1270.064331,680.598572 1265.782227,692.625732 
	C1258.770630,712.318970 1251.859131,732.069641 1240.747559,750.113159 
	C1230.527466,766.708923 1220.353516,783.230713 1208.243896,798.578613 
	C1190.632812,820.899292 1169.982788,839.388062 1145.376465,853.847900 
	C1119.455200,869.080383 1091.241089,876.262756 1061.920776,879.965637 
	C1048.309570,881.684692 1034.543945,882.550354 1020.823608,882.945801 
	C1003.072571,883.457458 985.163086,884.434509 967.580505,882.655151 
	C956.514465,881.535339 945.385986,876.824829 935.217163,871.828735 
	C903.565063,856.277405 876.739014,834.383850 854.447998,807.005310 
	C854.143250,806.631104 854.006653,806.119995 853.905884,805.323914 
z"/>
<path fill="#999999" opacity="1.000000" stroke="none" 
	d="
M100.831024,192.479553 
	C103.129333,193.131622 105.408623,194.025665 107.570602,195.146088 
	C129.419800,206.469193 152.296234,208.142441 175.979630,202.570740 
	C210.937073,194.346725 245.894836,186.123810 280.868927,177.970993 
	C288.640472,176.159363 296.488403,174.677582 304.286255,172.975540 
	C309.210602,171.900711 312.776520,173.780029 313.942871,178.470322 
	C316.543640,188.928741 318.817719,199.478287 320.862244,210.060760 
	C321.805206,214.941742 321.897217,219.987122 322.277466,225.399658 
	C290.502350,233.377090 258.841309,240.983032 227.141556,248.423965 
	C205.881958,253.414261 184.545135,254.711914 163.995438,245.883881 
	C155.400421,242.191528 146.695755,237.564667 139.777817,231.410294 
	C126.130394,219.269226 113.694496,205.766312 100.831024,192.479553 
z"/>
<path fill="#999999" opacity="1.000000" stroke="none" 
	d="
M1342.961670,189.459274 
	C1353.571533,190.370758 1364.062744,190.336060 1374.208740,186.045044 
	C1375.006714,185.707626 1377.316406,187.132919 1377.783936,188.226303 
	C1378.599609,190.133652 1378.826660,192.427231 1378.778320,194.547058 
	C1378.529419,205.488541 1378.114624,216.426270 1377.568115,227.818298 
	C1372.047241,223.444611 1366.205444,219.063599 1361.507324,213.683868 
	C1354.893555,206.110519 1349.127563,197.796677 1342.961670,189.459274 
z"/>
<path fill="#FFFFFF" opacity="1.000000" stroke="none" 
	d="
M1780.990967,198.007706 
	C1787.895386,209.481201 1795.796875,220.482697 1801.498413,232.525665 
	C1813.675903,258.247864 1821.015991,285.694519 1823.334717,313.959656 
	C1825.003052,334.296936 1823.851440,354.898407 1823.348999,375.367096 
	C1823.096313,385.654602 1822.573730,396.159210 1820.276123,406.128479 
	C1814.649902,430.540833 1806.663818,454.261841 1796.603760,477.269073 
	C1773.602417,529.872131 1742.295288,576.439941 1699.722168,615.487976 
	C1683.361206,630.494202 1665.503540,642.804443 1646.634033,654.085510 
	C1615.529175,672.681396 1583.784302,689.973267 1549.170288,702.940979 
	C1548.260376,701.003235 1547.927246,699.203125 1547.941040,697.405640 
	C1548.173584,667.088867 1548.573364,636.772949 1548.686768,606.455811 
	C1548.862549,559.467957 1548.849731,512.479431 1548.916260,465.491150 
	C1548.918823,463.751648 1548.916626,462.012146 1548.916626,460.305817 
	C1545.628296,460.005463 1543.167603,459.780701 1540.894409,459.573090 
	C1540.894409,467.180908 1540.953369,474.783508 1540.882812,482.384949 
	C1540.695923,502.537018 1540.483032,522.688904 1540.224976,542.840210 
	C1539.905151,567.823547 1539.506348,592.805908 1539.205566,617.789429 
	C1539.166138,621.061218 1538.687012,623.727295 1533.396606,624.177551 
	C1532.775757,524.720093 1533.000000,425.578033 1533.213501,326.249756 
	C1536.608398,326.249756 1538.656738,326.249756 1541.182129,326.249756 
	C1541.182129,328.425507 1541.182129,330.223877 1541.182129,332.022247 
	C1541.182129,369.512970 1541.177612,407.003662 1541.187866,444.494385 
	C1541.189331,449.736603 1543.248657,451.303406 1547.798218,448.748749 
	C1549.731323,447.663269 1551.635132,444.738007 1551.769165,442.540070 
	C1552.417236,431.913239 1552.878540,421.239807 1552.636230,410.600433 
	C1551.942749,380.152435 1550.837646,349.713989 1549.973145,319.269562 
	C1549.524170,303.458588 1549.614380,287.623383 1548.789185,271.834259 
	C1547.774414,252.417542 1546.769775,232.966995 1541.864136,213.975143 
	C1539.010620,202.928024 1539.924683,202.059799 1550.818115,198.909012 
	C1572.647827,192.595093 1595.309204,190.041016 1617.137329,183.469864 
	C1630.080322,179.573502 1643.875000,178.304337 1657.373413,176.502213 
	C1677.279419,173.844604 1697.111694,171.087570 1717.367554,174.970901 
	C1738.987427,179.115753 1759.766479,184.906586 1778.255493,197.309647 
	C1778.991943,197.803680 1780.071411,197.786636 1780.990967,198.007706 
z"/>
<path fill="#989898" opacity="1.000000" stroke="none" 
	d="
M1781.043945,197.654755 
	C1780.071411,197.786636 1778.991943,197.803680 1778.255493,197.309647 
	C1759.766479,184.906586 1738.987427,179.115753 1717.367554,174.970901 
	C1697.111694,171.087570 1677.279419,173.844604 1657.373413,176.502213 
	C1643.875000,178.304337 1630.080322,179.573502 1617.137329,183.469864 
	C1595.309204,190.041016 1572.647827,192.595093 1550.818115,198.909012 
	C1539.924683,202.059799 1539.010620,202.928024 1541.864136,213.975143 
	C1546.769775,232.966995 1547.774414,252.417542 1548.789185,271.834259 
	C1549.614380,287.623383 1549.524170,303.458588 1549.973145,319.269562 
	C1550.837646,349.713989 1551.942749,380.152435 1552.636230,410.600433 
	C1552.878540,421.239807 1552.417236,431.913239 1551.769165,442.540070 
	C1551.635132,444.738007 1549.731323,447.663269 1547.798218,448.748749 
	C1543.248657,451.303406 1541.189331,449.736603 1541.187866,444.494385 
	C1541.177612,407.003662 1541.182129,369.512970 1541.182129,332.022247 
	C1541.182129,330.223877 1541.182129,328.425507 1541.182129,326.249756 
	C1538.656738,326.249756 1536.608398,326.249756 1533.213501,326.249756 
	C1533.000000,425.578033 1532.775757,524.720093 1533.396606,624.177551 
	C1538.687012,623.727295 1539.166138,621.061218 1539.205566,617.789429 
	C1539.506348,592.805908 1539.905151,567.823547 1540.224976,542.840210 
	C1540.483032,522.688904 1540.695923,502.537018 1540.882812,482.384949 
	C1540.953369,474.783508 1540.894409,467.180908 1540.894409,459.573090 
	C1543.167603,459.780701 1545.628296,460.005463 1548.916626,460.305817 
	C1548.916626,462.012146 1548.918823,463.751648 1548.916260,465.491150 
	C1548.849731,512.479431 1548.862549,559.467957 1548.686768,606.455811 
	C1548.573364,636.772949 1548.173584,667.088867 1547.941040,697.405640 
	C1547.927246,699.203125 1548.260376,701.003235 1548.819458,703.042480 
	C1533.866333,708.976624 1518.525757,714.670349 1502.082642,720.773376 
	C1501.630005,716.142944 1501.073242,713.100708 1501.075562,710.058899 
	C1501.098389,680.902222 1501.194458,651.745605 1501.310059,622.589050 
	C1501.564331,558.445129 1501.843750,494.301300 1502.107666,430.157440 
	C1502.129517,424.847473 1502.110596,419.537323 1502.110596,414.010895 
	C1499.363281,413.626068 1496.950806,413.288147 1493.805176,412.847534 
	C1493.805176,416.283600 1493.823853,419.529236 1493.802490,422.774597 
	C1493.474487,472.419495 1493.150635,522.064392 1492.791870,571.709106 
	C1492.762207,575.816406 1492.182251,576.369446 1487.375488,577.749695 
	C1487.248047,575.907898 1487.024780,574.157166 1487.020508,572.405823 
	C1486.814941,488.934662 1486.602173,405.463501 1486.468262,321.992188 
	C1486.448730,309.832123 1486.804688,297.671265 1487.009277,285.511108 
	C1487.128174,278.438049 1487.286255,278.330292 1494.641602,280.054932 
	C1494.641602,320.655853 1494.641602,361.382141 1494.641602,401.980682 
	C1502.059570,403.797668 1505.155273,401.811920 1505.140625,394.930176 
	C1505.089722,371.122040 1504.813354,347.314209 1504.585571,323.506653 
	C1504.542603,319.010651 1504.332642,314.516205 1504.192383,310.021240 
	C1503.096191,274.906799 1502.441162,239.770157 1500.674805,204.689468 
	C1500.001587,191.320114 1496.828125,178.071045 1494.698364,164.782532 
	C1493.191162,155.377930 1493.026001,154.981384 1502.112671,152.905975 
	C1520.732178,148.653259 1539.491333,145.014297 1558.135132,140.863068 
	C1567.981689,138.670639 1577.578491,135.005692 1587.512939,133.632019 
	C1608.915649,130.672638 1630.468140,126.849304 1651.951050,126.899361 
	C1680.386230,126.965622 1707.393799,135.101807 1731.707153,150.629471 
	C1751.136963,163.038361 1767.969360,178.214523 1781.043945,197.654755 
z"/>
<path fill="#959595" opacity="1.000000" stroke="none" 
	d="
M1899.869507,540.867065 
	C1891.136353,568.082031 1880.857544,594.240112 1866.016357,618.296448 
	C1860.716064,626.887817 1853.964111,634.593628 1847.727417,642.588623 
	C1846.539673,644.111328 1844.783325,645.334167 1843.048828,646.229614 
	C1842.101562,646.718567 1840.253784,646.685486 1839.535767,646.058716 
	C1838.791260,645.408997 1838.358276,643.500427 1838.773315,642.591858 
	C1840.072388,639.746887 1841.623779,636.961121 1843.452515,634.422729 
	C1858.085938,614.111389 1872.034302,593.144836 1881.415649,570.032227 
	C1889.987671,548.913330 1895.489258,526.520386 1901.871826,504.551727 
	C1905.394653,492.426392 1907.942871,480.018127 1910.940674,467.739899 
	C1911.335083,466.124298 1911.385986,464.220306 1912.311890,462.987518 
	C1913.650024,461.205566 1915.625122,458.700958 1917.359619,458.676270 
	C1920.619507,458.629852 1921.388672,461.754395 1920.963745,464.617676 
	C1920.281616,469.213379 1919.698608,473.877533 1918.410034,478.320282 
	C1912.389404,499.077942 1906.141479,519.769714 1899.869507,540.867065 
z"/>
<path fill="#F8F8F8" opacity="1.000000" stroke="none" 
	d="
M1466.057739,62.935890 
	C1464.760376,62.431736 1463.874756,61.889946 1462.989136,61.348156 
	C1463.699585,60.346672 1464.185913,58.894928 1465.154785,58.412373 
	C1476.582642,52.720390 1487.838501,46.578148 1499.626221,41.740173 
	C1514.151978,35.778400 1529.036377,30.629515 1543.960327,25.720951 
	C1553.072266,22.723999 1562.498169,20.012138 1572.269531,22.950146 
	C1573.981201,23.464823 1576.808716,24.956594 1576.732422,25.774349 
	C1576.562500,27.595882 1575.242432,30.315325 1573.753784,30.831757 
	C1567.837402,32.884304 1561.694946,34.306259 1555.602173,35.825077 
	C1539.067505,39.946815 1522.386230,43.550083 1506.024170,48.264954 
	C1497.649658,50.678158 1489.919312,55.250893 1481.734253,58.425652 
	C1476.808716,60.336063 1471.568359,61.434769 1466.057739,62.935890 
z"/>
<path fill="#FFFFFF" opacity="1.000000" stroke="none" 
	d="
M1085.644165,412.191925 
	C1089.359375,424.559082 1093.466553,436.824707 1096.702271,449.316101 
	C1102.194336,470.518250 1104.842285,492.191406 1103.827026,514.066589 
	C1100.964478,575.747192 1082.281616,631.693726 1041.981934,679.382568 
	C1026.488159,697.717224 1007.728333,711.755432 984.871216,719.811523 
	C970.797180,724.771973 956.624268,727.462341 942.129272,720.092896 
	C941.166748,716.388733 940.524109,713.296570 939.483765,710.344482 
	C933.718872,693.987305 929.772400,677.324097 928.726746,659.895264 
	C926.541748,623.473450 925.542236,587.137329 930.822632,550.849792 
	C935.981323,515.398438 947.341248,482.136505 964.578674,450.781250 
	C974.705505,432.360321 989.056030,419.125214 1009.972229,414.735992 
	C1024.083618,411.774719 1038.455322,409.982147 1052.761230,408.041260 
	C1064.016846,406.514130 1074.861816,409.370117 1085.644165,412.191925 
z"/>
<path fill="#999999" opacity="1.000000" stroke="none" 
	d="
M1085.694824,411.829498 
	C1074.861816,409.370117 1064.016846,406.514130 1052.761230,408.041260 
	C1038.455322,409.982147 1024.083618,411.774719 1009.972229,414.735992 
	C989.056030,419.125214 974.705505,432.360321 964.578674,450.781250 
	C947.341248,482.136505 935.981323,515.398438 930.822632,550.849792 
	C925.542236,587.137329 926.541748,623.473450 928.726746,659.895264 
	C929.772400,677.324097 933.718872,693.987305 939.483765,710.344482 
	C940.524109,713.296570 941.166748,716.388733 941.902344,719.805237 
	C927.578552,715.644409 917.058044,706.173889 908.373047,694.491272 
	C898.423096,681.107239 892.946289,665.817444 888.461304,649.802429 
	C877.510742,610.700195 880.034119,570.788208 881.413452,531.200928 
	C882.942566,487.310699 895.697632,445.942047 916.153809,406.861267 
	C929.078247,382.169495 949.027161,368.784363 976.108704,365.087830 
	C986.654175,363.648438 997.210815,361.600891 1007.802307,361.315613 
	C1042.954712,360.368835 1072.897461,378.064423 1085.694824,411.829498 
z"/>
<path fill="#F7F7F7" opacity="1.000000" stroke="none" 
	d="
M808.852234,731.160400 
	C797.493652,719.433167 790.000793,705.215271 782.998169,690.719604 
	C775.170471,674.516174 769.029114,657.725220 766.461731,639.807373 
	C766.015259,636.691650 765.774170,633.494385 765.950012,630.363586 
	C766.037415,628.807251 767.284973,627.316040 768.007751,625.795410 
	C769.242859,627.178284 771.131348,628.372070 771.596130,629.977844 
	C773.297607,635.857056 774.547058,641.868347 775.926941,647.839111 
	C779.033691,661.282166 783.150146,674.210876 790.485107,686.184326 
	C796.353394,695.763611 800.713928,706.266724 805.735107,717.078186 
	C806.499023,720.418091 807.363586,723.017090 808.011719,725.669006 
	C808.449646,727.460876 808.582764,729.327332 808.852234,731.160400 
z"/>
<path fill="#979797" opacity="1.000000" stroke="none" 
	d="
M808.995667,731.473389 
	C808.582764,729.327332 808.449646,727.460876 808.011719,725.669006 
	C807.363586,723.017090 806.499023,720.418091 805.854492,717.408508 
	C808.938782,720.857849 812.122620,724.549133 814.730164,728.610535 
	C815.662903,730.063477 815.202332,732.410950 815.377686,734.350098 
	C813.824097,733.886108 812.249695,733.479553 810.727234,732.929199 
	C810.137329,732.715820 809.664978,732.177002 808.995667,731.473389 
z"/>
<path fill="#FFFFFF" opacity="1.000000" stroke="none" 
	d="
M2356.878906,412.080719 
	C2359.092041,418.468750 2361.553955,424.782990 2363.475830,431.257477 
	C2372.150635,460.481567 2376.987061,490.264587 2374.978760,520.828125 
	C2371.410889,575.135742 2354.903320,624.963806 2322.110107,668.799194 
	C2305.086426,691.555115 2284.333984,709.916992 2256.974365,719.499695 
	C2242.681885,724.505615 2228.231689,728.236877 2213.437500,719.709106 
	C2210.945557,710.929077 2209.017090,702.665405 2206.251221,694.692261 
	C2201.044189,679.682861 2199.584229,664.031006 2199.323730,648.479614 
	C2198.791504,616.718384 2197.249268,584.908630 2201.855225,553.215698 
	C2207.230957,516.223816 2218.804688,481.471283 2237.121338,448.899506 
	C2247.906738,429.720276 2263.869873,417.844910 2285.506592,413.716248 
	C2291.869141,412.502136 2298.242188,411.278534 2304.659180,410.427032 
	C2317.667236,408.700897 2330.673340,406.102478 2343.851562,409.035889 
	C2348.204102,410.004791 2352.537109,411.063232 2356.878906,412.080719 
z"/>
<path fill="#999999" opacity="1.000000" stroke="none" 
	d="
M2356.952637,411.708313 
	C2352.537109,411.063232 2348.204102,410.004791 2343.851562,409.035889 
	C2330.673340,406.102478 2317.667236,408.700897 2304.659180,410.427032 
	C2298.242188,411.278534 2291.869141,412.502136 2285.506592,413.716248 
	C2263.869873,417.844910 2247.906738,429.720276 2237.121338,448.899506 
	C2218.804688,481.471283 2207.230957,516.223816 2201.855225,553.215698 
	C2197.249268,584.908630 2198.791504,616.718384 2199.323730,648.479614 
	C2199.584229,664.031006 2201.044189,679.682861 2206.251221,694.692261 
	C2209.017090,702.665405 2210.945557,710.929077 2213.177734,719.452637 
	C2202.617188,717.108887 2194.339111,710.797546 2187.113525,703.128418 
	C2172.723389,687.854370 2165.268311,669.227112 2159.740234,649.159302 
	C2149.454346,611.818726 2151.306152,573.756958 2152.495605,535.975098 
	C2153.986084,488.638123 2166.779053,443.854309 2190.329834,402.374054 
	C2201.497559,382.703735 2217.824951,370.524261 2240.059326,366.810333 
	C2254.475830,364.402252 2269.081055,361.088593 2283.538818,361.373932 
	C2317.521973,362.044586 2344.418945,378.783386 2356.952637,411.708313 
z"/>
<path fill="#F7F7F7" opacity="1.000000" stroke="none" 
	d="
M2080.939209,731.451721 
	C2074.823975,723.236816 2067.808838,715.534424 2062.776367,706.702515 
	C2051.570068,687.035583 2042.526855,666.347717 2038.551758,643.821777 
	C2037.831055,639.737854 2037.380493,635.578369 2037.212280,631.437134 
	C2037.133911,629.509094 2038.028687,627.541443 2038.482422,625.591736 
	C2039.111328,625.494385 2039.740112,625.397095 2040.369019,625.299744 
	C2041.337646,627.325256 2042.624390,629.261353 2043.223145,631.390869 
	C2046.903809,644.481079 2049.463623,657.982849 2054.282959,670.628723 
	C2058.917236,682.788879 2065.834473,694.079102 2071.752441,705.749695 
	C2073.387695,708.973999 2075.035889,712.191711 2076.723145,716.135010 
	C2078.158203,721.722351 2079.548828,726.587036 2080.939209,731.451721 
z"/>
<path fill="#959595" opacity="1.000000" stroke="none" 
	d="
M2081.042969,731.757446 
	C2079.548828,726.587036 2078.158203,721.722351 2076.854004,716.465088 
	C2079.877930,719.965820 2083.062988,723.704712 2085.637207,727.825378 
	C2086.732422,729.578186 2086.548340,732.130005 2086.945801,734.318726 
	C2085.012939,733.566833 2083.079834,732.814941 2081.042969,731.757446 
z"/>
<path fill="#979797" opacity="1.000000" stroke="none" 
	d="
M429.294678,332.463745 
	C432.123871,332.043304 434.622986,331.855957 437.624084,331.631012 
	C437.624084,334.597778 437.616302,336.579742 437.625183,338.561615 
	C437.943115,409.517609 438.363953,480.473358 438.504913,551.429749 
	C438.536987,567.567078 437.696594,583.710205 437.054291,599.842590 
	C436.851349,604.939758 433.709503,606.770508 429.919434,604.100220 
	C428.695312,603.237732 428.047211,600.820984 428.023071,599.102783 
	C427.683929,574.953979 427.340973,550.803284 427.306396,526.652527 
	C427.219666,466.022034 427.257599,405.391235 427.367676,344.760773 
	C427.374969,340.738525 428.408447,336.718109 429.294678,332.463745 
z"/>
<path fill="#F8F8F8" opacity="1.000000" stroke="none" 
	d="
M189.519409,71.819305 
	C210.281174,68.494781 230.587433,65.042305 250.961182,62.049484 
	C266.219086,59.808155 281.548462,58.021919 296.875153,56.290730 
	C308.437775,54.984699 320.097809,54.470863 331.624664,52.931770 
	C361.453857,48.948914 391.231720,44.581898 421.037933,40.424854 
	C422.470306,40.225079 424.184448,40.152637 425.400635,40.757847 
	C427.050323,41.578766 428.345612,43.111813 429.792938,44.339397 
	C428.434296,45.588982 427.238983,47.641308 425.690247,47.956398 
	C416.430389,49.840336 407.125519,51.583691 397.768585,52.895088 
	C364.520935,57.554840 331.284088,62.327515 297.968231,66.452187 
	C276.342804,69.129532 254.552307,70.451317 232.899353,72.934853 
	C209.944077,75.567749 187.061844,78.839905 164.153351,81.875404 
	C160.284760,82.388023 159.961960,82.016853 160.223694,75.799706 
	C169.779434,74.505180 179.436157,73.196968 189.519409,71.819305 
z"/>
<path fill="#FCFCFC" opacity="1.000000" stroke="none" 
	d="
M1902.247559,680.234741 
	C1898.797363,684.093445 1895.786255,687.909241 1892.246216,691.146790 
	C1890.858887,692.415527 1888.286255,692.388000 1886.253418,692.950806 
	C1886.251587,690.825500 1885.629639,688.437317 1886.393311,686.636658 
	C1887.536987,683.939758 1889.655518,681.656616 1891.356812,679.195679 
	C1906.611328,657.130005 1921.870117,634.814270 1931.195557,609.643005 
	C1939.409912,587.470703 1944.618164,564.175232 1950.945068,541.317932 
	C1953.646484,531.558655 1955.688599,521.618042 1958.306519,511.833710 
	C1959.099365,508.870361 1959.366089,504.221161 1964.072266,505.223602 
	C1968.595215,506.187012 1968.229858,510.244019 1967.290649,513.812256 
	C1963.234985,529.221130 1959.427856,544.705444 1954.933838,559.986938 
	C1946.725342,587.899841 1938.373657,615.842712 1925.045654,641.835144 
	C1918.319458,654.952454 1910.047974,667.277405 1902.247559,680.234741 
z"/>
<path fill="#FEFEFE" opacity="1.000000" stroke="none" 
	d="
M484.970947,471.000000 
	C484.982086,521.635254 485.038544,571.770569 484.952179,621.905701 
	C484.938141,630.047729 484.379761,638.194031 483.885223,646.327026 
	C483.726044,648.944458 483.426605,651.961182 479.591858,651.830444 
	C475.864349,651.703308 474.680634,649.729797 474.675140,645.975220 
	C474.547699,559.039612 474.296234,472.104279 474.134827,385.168762 
	C474.131348,383.286835 474.306976,380.606079 475.477753,379.714630 
	C477.083374,378.492126 479.831451,378.045441 481.870911,378.429504 
	C482.859589,378.615662 483.952240,381.440216 483.976227,383.085205 
	C484.400757,412.222107 484.667786,441.361298 484.970947,471.000000 
z"/>
</svg>